<svg data-name="Layer 1" viewBox="0 0 512 512" xmlns="http://www.w3.org/2000/svg"><path d="M466 144v304H146V232h163.2a9.83 9.83 0 0 0 9.8-9.8v-80.4a9.83 9.83 0 0 0-9.8-9.8H146V64h224v64a16 16 0 0 0 16 16ZM370 64l96 80" stroke-linejoin="round" fill="none" stroke="#feee86" stroke-width="10px" class="stroke-000000"></path><rect height="100" rx="9.8" ry="9.8" width="280" x="39" y="132" stroke-linejoin="round" fill="none" stroke="#feee86" stroke-width="10px" class="stroke-000000"></rect><path d="M116 202.24V160.3h7.08v35.22h19.14v6.72ZM177.62 160.3v6.7h-22.38v11.1h20.1v6.3h-20.1v11.22h23.1v6.66h-30.18V160.3ZM199.4 165.82a9.29 9.29 0 0 0-5.07 1.26 4.21 4.21 0 0 0-2 3.81 4.43 4.43 0 0 0 2 3.9q2 1.35 8.43 2.91t9.72 4.38q3.27 2.82 3.27 8.31a11 11 0 0 1-4.14 8.91q-4.14 3.42-10.86 3.42a25.51 25.51 0 0 1-17.46-6.78l4.44-5.34q6.36 5.52 13.2 5.52a9 9 0 0 0 5.43-1.47 4.6 4.6 0 0 0 2-3.9 4.38 4.38 0 0 0-1.89-3.78 19.89 19.89 0 0 0-6.51-2.46 58.31 58.31 0 0 1-7-2 15.82 15.82 0 0 1-4.26-2.43q-3.7-2.86-3.7-8.68a10.52 10.52 0 0 1 4.23-9 17 17 0 0 1 10.47-3.15 25.11 25.11 0 0 1 8 1.32 20.88 20.88 0 0 1 6.84 3.72l-3.78 5.34a14.3 14.3 0 0 0-5-2.76 19.41 19.41 0 0 0-6.36-1.05ZM236.2 165.82a9.29 9.29 0 0 0-5.07 1.26 4.21 4.21 0 0 0-2 3.81 4.43 4.43 0 0 0 2 3.9q2 1.35 8.43 2.91t9.72 4.38q3.27 2.82 3.27 8.31a11 11 0 0 1-4.14 8.91q-4.14 3.42-10.86 3.42a25.51 25.51 0 0 1-17.46-6.78l4.44-5.34q6.36 5.52 13.2 5.52a9 9 0 0 0 5.43-1.47 4.6 4.6 0 0 0 2-3.9 4.38 4.38 0 0 0-1.89-3.78 19.89 19.89 0 0 0-6.51-2.46 58.31 58.31 0 0 1-7-2 15.82 15.82 0 0 1-4.26-2.43q-3.72-2.82-3.72-8.64a10.52 10.52 0 0 1 4.23-9 17 17 0 0 1 10.47-3.15 25.11 25.11 0 0 1 8 1.32 20.88 20.88 0 0 1 6.84 3.72l-3.78 5.34a14.3 14.3 0 0 0-5-2.76 19.41 19.41 0 0 0-6.34-1.09Z" fill="#feee86" class="fill-000000"></path><path d="m254 274-64 64 64 64M270 402l48-128M338 274l64 64-64 64" stroke-miterlimit="10" fill="none" stroke="#feee86" stroke-width="10px" class="stroke-000000"></path></svg>