<svg viewBox="0 0 212.458 186.23" xml:space="preserve" xmlns="http://www.w3.org/2000/svg"><path d="M151.79 86.234c-7.078.123-14.154.56-21.233.707-12.318.248-24.64.567-36.96.512-11.176-.047-22.358-.973-33.518-.705-7.316.178-14.373 2.295-20.13 7.584-9.948 9.137-12.522 21-11.315 33.807 1.92 20.357 9.271 31.449 29.115 37.064 15.793 4.47 31.963 5.209 48.2 4.975 5.253 0 10.509.136 15.757-.03 12.723-.406 25.264-2.207 37.357-6.36 10.846-3.722 18.8-10.69 22.573-22.165 2.673-8.129 3.715-16.389 2.554-24.853-1.777-12.96-13.275-30.86-32.4-30.536zM70.214 146.23c-8.836 0-16-8.955-16-20 0-11.044 7.164-20 16-20s16 8.956 16 20c0 11.045-7.164 20-16 20zm76 0c-8.836 0-16-8.955-16-20 0-11.044 7.164-20 16-20s16 8.956 16 20c0 11.045-7.164 20-16 20z" fill="none"></path><path d="M200.245 59.188c-2.507-3.45-4.363-6.39-3.875-11.44.68-7.066-.353-14.396-1.32-21.518-1.219-8.984-3.524-17.74-7.178-26.23-9.033 1.936-17.98 3.49-25.963 8.098-8.465 4.89-16.695 10.214-25.08 15.25-.953.57-2.312.884-3.385.703-17.967-3.137-35.92-3.02-53.898-.086-1.363.224-3.073-.235-4.295-.961-4.444-2.66-8.656-5.734-13.123-8.352C50.472 7.808 38.468 1.83 24.634.062c-.393.86-.719 1.479-.961 2.126a122.692 122.692 0 0 0-7.428 34.82c-.287 4.351-.61 8.804 0 13.072.346 2.43-.004 3.879-1.392 5.613C10 61.742 6.216 68.41 3.75 75.912c-4.697 14.295-4.4 28.861-2.276 43.475C3.202 131.36 6.21 142.924 12.8 153.26c13.186 20.681 32.892 29.773 55.572 31.705 19.309 1.646 38.8 1.199 58.213 1.236 13.855.025 27.57-1.492 40.715-6.639 20.375-7.972 33.86-22.603 40.275-44.166 3.734-12.544 5.232-25.396 4.814-38.498-.44-13.81-4.05-26.566-12.144-37.71zm-18.61 82.435c-3.773 11.475-11.726 18.443-22.571 22.166-12.094 4.152-24.635 5.953-37.358 6.36-5.248.165-10.504.029-15.758.029-16.236.234-32.406-.504-48.199-4.975-19.843-5.615-27.195-16.707-29.115-37.064-1.207-12.807 1.367-24.67 11.314-33.807 5.758-5.29 12.815-7.406 20.131-7.584 11.16-.268 22.342.658 33.518.705 12.32.055 24.642-.264 36.96-.512 7.079-.146 14.155-.584 21.233-.707 19.125-.324 30.623 17.576 32.4 30.536 1.16 8.464.12 16.724-2.554 24.853z" fill="#feee86" class="fill-2f4556"></path><ellipse cx="70.214" cy="126.23" fill="#feee86" rx="16" ry="20" class="fill-2f4556"></ellipse><ellipse cx="146.214" cy="126.23" fill="#feee86" rx="16" ry="20" class="fill-2f4556"></ellipse></svg>